<svg width="572" height="106" viewBox="0 0 572 106" fill="none" xmlns="http://www.w3.org/2000/svg">
<path d="M94.1476 41.7856C90.0762 37.7142 85.1323 35.6785 79.316 35.6785C73.4997 35.6785 68.5559 37.7142 64.4845 41.7856C63.9998 42.2703 63.612 42.755 63.1273 43.2397C62.7396 42.755 62.2549 42.2703 61.8671 41.7856C57.6988 37.7142 52.755 35.6785 46.9387 35.6785C41.1224 35.6785 36.1785 37.7142 32.1071 41.7856C28.0357 45.9539 26 50.8978 26 56.7141V85.7955C26 87.1527 26.3877 88.219 27.3571 89.1884C28.3265 90.1578 29.4898 90.6424 30.8469 90.6424C32.1071 90.6424 33.2704 90.1578 34.2397 89.1884C35.2091 88.219 35.6938 87.1527 35.6938 85.7955V56.7141C35.6938 53.612 36.7602 50.8978 38.9897 48.6682C41.2193 46.4386 43.8366 45.3723 46.9387 45.3723C50.1376 45.3723 52.7549 46.4386 54.9845 48.6682C57.2141 50.8978 58.2804 53.612 58.2804 56.7141V85.7955C58.2804 87.1527 58.7651 88.219 59.7345 89.1884C60.7039 90.1578 61.7702 90.6424 63.1273 90.6424C64.4845 90.6424 65.6477 90.1578 66.5202 89.1884C67.4896 88.219 67.9742 87.1527 67.9742 85.7955V56.7141C67.9742 54.6784 68.459 52.7396 69.5253 50.9947C70.4947 49.2498 71.8518 47.8927 73.5967 46.9233C75.3415 45.857 77.2803 45.3723 79.316 45.3723C82.4181 45.3723 85.1323 46.4386 87.265 48.6682C89.4945 50.8978 90.6578 53.612 90.6578 56.7141V85.7955C90.6578 87.1527 91.0455 88.219 92.0149 89.1884C92.9843 90.1578 94.1476 90.6424 95.5047 90.6424C96.7649 90.6424 97.9281 90.1578 98.8975 89.1884C99.8669 88.219 100.352 87.1527 100.352 85.7955V56.7141C100.352 50.8978 98.219 45.9539 94.1476 41.7856Z" fill="#286EA9"/>
<path d="M147.641 90.8364C154.039 90.8364 159.662 88.8976 164.606 84.8262C165.672 84.0507 166.157 82.9844 166.351 81.7242C166.447 80.367 166.157 79.3007 165.284 78.2344C164.509 77.265 163.442 76.6834 162.182 76.5864C160.922 76.4895 159.759 76.7803 158.789 77.6528C155.493 80.2701 151.81 81.5303 147.641 81.5303C142.795 81.5303 138.626 79.8823 135.233 76.3926C131.744 72.9997 130.096 68.8314 130.096 63.9845C130.096 59.1376 131.744 54.9692 135.233 51.4794C138.626 48.0866 142.795 46.3417 147.641 46.3417C151.616 46.3417 155.203 47.6019 158.402 50.0254C161.504 52.4488 163.539 55.5508 164.606 59.3314H147.641C146.381 59.3314 145.218 59.8161 144.346 60.6886C143.473 61.561 142.988 62.7243 142.988 63.9845C142.988 65.2447 143.473 66.4079 144.346 67.2804C145.218 68.1528 146.381 68.6375 147.641 68.6375H169.937C171.197 68.6375 172.264 68.1528 173.136 67.2804C174.106 66.4079 174.59 65.2447 174.59 63.9845C174.59 56.5202 171.876 50.2192 166.641 44.9846C161.407 39.7499 155.106 37.0356 147.641 37.0356C140.177 37.0356 133.876 39.7499 128.642 44.9846C123.407 50.2192 120.79 56.5202 120.79 63.9845C120.79 71.4487 123.407 77.7497 128.642 82.9844C133.876 88.219 140.177 90.8364 147.641 90.8364Z" fill="#286EA9"/>
<path d="M261.391 41.7856C257.32 37.7142 252.376 35.6785 246.56 35.6785C240.743 35.6785 235.8 37.7142 231.728 41.7856C231.243 42.2703 230.856 42.755 230.371 43.2397C229.983 42.755 229.499 42.2703 229.111 41.7856C224.942 37.7142 219.999 35.6785 214.182 35.6785C208.366 35.6785 203.422 37.7142 199.351 41.7856C195.279 45.9539 193.244 50.8978 193.244 56.7141V85.7955C193.244 87.1527 193.631 88.219 194.601 89.1884C195.57 90.1578 196.733 90.6424 198.091 90.6424C199.351 90.6424 200.514 90.1578 201.483 89.1884C202.453 88.219 202.937 87.1527 202.937 85.7955V56.7141C202.937 53.612 204.004 50.8978 206.233 48.6682C208.463 46.4386 211.08 45.3723 214.182 45.3723C217.381 45.3723 219.999 46.4386 222.228 48.6682C224.458 50.8978 225.524 53.612 225.524 56.7141V85.7955C225.524 87.1527 226.009 88.219 226.978 89.1884C227.948 90.1578 229.014 90.6424 230.371 90.6424C231.728 90.6424 232.891 90.1578 233.764 89.1884C234.733 88.219 235.218 87.1527 235.218 85.7955V56.7141C235.218 54.6784 235.703 52.7396 236.769 50.9947C237.738 49.2498 239.095 47.8927 240.84 46.9233C242.585 45.857 244.524 45.3723 246.56 45.3723C249.662 45.3723 252.376 46.4386 254.509 48.6682C256.738 50.8978 257.901 53.612 257.901 56.7141V85.7955C257.901 87.1527 258.289 88.219 259.259 89.1884C260.228 90.1578 261.391 90.6424 262.748 90.6424C264.009 90.6424 265.172 90.1578 266.141 89.1884C267.111 88.219 267.595 87.1527 267.595 85.7955V56.7141C267.595 50.8978 265.463 45.9539 261.391 41.7856Z" fill="#286EA9"/>
<path d="M316.048 90.8364C323.512 90.8364 329.813 88.219 335.048 82.9844C340.283 77.7497 342.997 71.4487 342.997 63.9845C342.997 56.5202 340.283 50.2192 335.048 44.9846C329.813 39.7499 323.512 37.0356 316.048 37.0356C308.584 37.0356 302.283 39.7499 297.048 44.9846C291.814 50.2192 289.196 56.5202 289.196 63.9845C289.196 71.4487 291.814 77.7497 297.048 82.9844C302.283 88.219 308.584 90.8364 316.048 90.8364ZM316.048 46.3417C320.895 46.3417 325.063 48.0866 328.553 51.4794C331.946 54.9692 333.691 59.1376 333.691 63.9845C333.691 68.8314 331.946 72.9997 328.553 76.3926C325.063 79.8823 320.895 81.5303 316.048 81.5303C311.201 81.5303 307.033 79.8823 303.64 76.3926C300.15 72.9997 298.502 68.8314 298.502 63.9845C298.502 59.1376 300.15 54.9692 303.64 51.4794C307.033 48.0866 311.201 46.3417 316.048 46.3417Z" fill="#286EA9"/>
<path d="M395.258 35.9692C387.115 35.9692 380.233 38.8774 374.416 44.5967C368.697 50.3161 365.886 57.1987 365.886 65.3415V85.7955C365.886 87.1526 366.273 88.2189 367.243 89.0914C368.115 90.0608 369.182 90.4485 370.539 90.4485C371.799 90.4485 372.865 90.0608 373.738 89.0914C374.707 88.2189 375.192 87.1526 375.192 85.7955V65.3415C375.192 59.816 377.131 55.0661 381.008 51.1885C384.983 47.2141 389.733 45.2753 395.258 45.2753C396.518 45.2753 397.585 44.7906 398.554 43.9182C399.426 42.9488 399.911 41.8825 399.911 40.6223C399.911 39.3621 399.426 38.1988 398.554 37.3264C397.585 36.4539 396.518 35.9692 395.258 35.9692Z" fill="#286EA9"/>
<path d="M423.24 38.7805C422.271 39.7499 421.883 40.9131 421.883 42.3672V85.5047C421.883 86.9588 422.271 88.122 423.24 89.0914C424.21 90.0608 425.373 90.4486 426.827 90.4486C428.281 90.4486 429.444 90.0608 430.414 89.0914C431.286 88.122 431.771 86.9588 431.771 85.5047V42.3672C431.771 40.9131 431.286 39.7499 430.414 38.7805C429.444 37.908 428.281 37.4234 426.827 37.4234C425.373 37.4234 424.21 37.908 423.24 38.7805ZM431.286 17.9388C430.026 16.6786 428.572 16 426.827 16C425.082 16 423.531 16.6786 422.271 17.9388C421.011 19.199 420.429 20.653 420.429 22.3979C420.429 24.1428 421.011 25.6938 422.271 26.954C423.531 28.2142 425.082 28.7958 426.827 28.7958C428.572 28.7958 430.026 28.2142 431.286 26.954C432.546 25.6938 433.225 24.1428 433.225 22.3979C433.225 20.653 432.546 19.199 431.286 17.9388Z" fill="#286EA9"/>
<path d="M488.195 39.0713C484.899 37.7142 481.119 37.0356 476.951 37.0356C473.461 37.0356 470.262 37.6173 467.257 38.6836C464.155 39.8469 461.731 41.4948 459.889 43.6274C457.951 45.857 457.078 48.5713 457.078 51.6733C457.078 59.5253 463.282 64.663 475.69 66.9896C480.44 67.9589 483.833 69.0253 485.869 70.3824C487.808 71.7395 488.874 73.3875 488.874 75.3262C488.874 77.4589 487.808 79.1068 485.772 80.2701C483.736 81.5303 480.925 82.1119 477.241 82.1119C474.43 82.1119 471.813 81.6272 469.389 80.6579C466.869 79.6885 465.027 78.4283 463.864 77.0711C462.701 75.9079 461.44 75.3262 460.18 75.3262C459.114 75.3262 457.951 75.8109 456.787 76.6834C455.43 77.6528 454.849 78.913 454.849 80.464C454.849 81.6272 455.236 82.6936 456.109 83.4691C458.241 85.6986 461.343 87.4435 465.221 88.8007C469.099 90.1578 473.17 90.8364 477.629 90.8364C481.991 90.8364 485.772 90.1578 488.874 88.8007C491.976 87.4435 494.399 85.5048 496.047 83.0813C497.598 80.6579 498.471 77.9436 498.471 74.9385C498.471 70.964 496.92 67.6681 494.012 65.1477C491.104 62.6273 486.063 60.6886 479.083 59.2345C475.593 58.5559 472.976 57.8774 471.231 57.1019C469.389 56.3264 468.129 55.5508 467.548 54.6784C466.869 53.806 466.578 52.7396 466.578 51.3825C466.578 49.6376 467.451 48.1835 469.389 47.2142C471.328 46.2448 473.752 45.6631 476.757 45.6631C479.277 45.6631 481.507 46.0509 483.348 46.6325C485.093 47.2142 486.838 48.2805 488.486 49.7346C489.843 50.9948 491.297 51.5764 493.042 51.5764C494.109 51.5764 494.981 51.3825 495.757 50.8009C496.823 49.9284 497.404 48.959 497.404 47.7958C497.404 46.8264 496.92 45.7601 496.144 44.6938C494.206 42.3672 491.491 40.4285 488.195 39.0713Z" fill="#286EA9"/>
<path d="M541.153 80.7547C538.342 80.7547 535.918 79.7854 533.98 77.7496C531.944 75.8109 530.975 73.3874 530.975 70.5762V47.7957H539.602C540.765 47.7957 541.832 47.408 542.704 46.5355C543.48 45.76 543.964 44.6937 543.964 43.4335C543.964 42.2703 543.48 41.2039 542.704 40.3315C541.832 39.556 540.765 39.0713 539.602 39.0713H530.975V25.403C530.975 24.0459 530.49 22.9795 529.521 22.0102C528.551 21.0408 527.485 20.5561 526.128 20.5561C524.771 20.5561 523.607 21.0408 522.638 22.0102C521.669 22.9795 521.281 24.0459 521.281 25.403V70.5762C521.281 76.1017 523.22 80.7547 527.097 84.6323C530.975 88.5098 535.628 90.4486 541.153 90.4486C542.51 90.4486 543.577 90.0608 544.546 89.0914C545.515 88.122 546 86.9588 546 85.6016C546 84.2445 545.515 83.1782 544.546 82.2088C543.577 81.2394 542.51 80.7547 541.153 80.7547Z" fill="#286EA9"/>
</svg>
